<?xml version="1.0" encoding="UTF-8"?>
<!DOCTYPE svg PUBLIC "-//W3C//DTD SVG 1.1//EN" "http://www.w3.org/Graphics/SVG/1.1/DTD/svg11.dtd">
<!-- Creator: CorelDRAW -->
<svg xmlns="http://www.w3.org/2000/svg" xml:space="preserve" width="5.69449in" height="11.0281in" version="1.1" style="shape-rendering:geometricPrecision; text-rendering:geometricPrecision; image-rendering:optimizeQuality; fill-rule:evenodd; clip-rule:evenodd"
viewBox="0 0 131.88 255.41"
 xmlns:xlink="http://www.w3.org/1999/xlink"
 xmlns:xodm="http://www.corel.com/coreldraw/odm/2003">
 <defs>
  <style type="text/css">
   <![CDATA[
    .str0 {stroke:white;stroke-width:1.82;stroke-miterlimit:2.61313}
    .fil0 {fill:white}
    .fil1 {fill:white}
   ]]>
  </style>
 </defs>
 <g id="Слой_x0020_1">
  <metadata id="CorelCorpID_0Corel-Layer"/>
  <path class="fil0 str0" d="M19.09 193.22c-0.36,1.6 -0.88,3.07 -1.46,4.62 -0.27,0.73 -0.34,1.27 -0.58,2.03 -0.42,1.35 -0.58,2.69 -0.75,4.17 -0.07,0.57 -0.13,1.42 -0.16,1.98 -0.2,3.41 -0.19,6.87 0.34,10.2 0.05,0.32 0.1,0.58 0.14,0.88 0.35,2.15 0.94,4.44 2.05,6.33 0.17,0.29 0.14,0.38 0.38,0.67 1.14,1.36 2.59,3.03 3.13,4.67 0.38,1.15 0.3,2.33 0.43,3.54 0.03,0.33 0.06,0.53 0.1,0.84 0.13,0.82 0.36,1.7 0.76,2.43 1.28,2.3 3.95,4.05 6.38,5.39 4.67,2.56 7.94,2.56 12.89,3.32 2.2,0.34 4.84,0.57 7.08,0.76 1.96,0.16 5.2,0.44 6.99,0.72 6.72,0.47 6.38,0.02 14.57,6.59 0.21,0.16 0.44,0.26 0.69,0.4 2.38,1.39 5.89,1.82 8.43,1.74 0.59,-0.02 1.06,-0.01 1.58,-0.07 0.54,-0.06 1.03,-0.09 1.56,-0.19 2.37,-0.46 4.42,-1.45 6.2,-3.07 1.06,-0.96 3.45,-2.17 4.48,-3.16 1.52,-1.45 2.64,-2.32 4.59,-3.06l2.75 -0.86c0.96,-0.29 1.82,-0.52 2.81,-0.77l4.28 -1c2.32,-0.58 4.7,-1.15 6.93,-2.01l1.93 -0.82c0.82,-0.4 1.63,-0.83 2.37,-1.36 0.95,-0.69 1.84,-1.5 2.64,-2.36 2.01,-2.18 2.94,-5.26 3.27,-8.22 0.09,-0.76 0.22,-1.42 0.28,-2.18 0.18,-2.2 1.17,-4.21 1.35,-6.44l1.17 -6.47c0.4,-5.49 -0.46,-13.15 -1.45,-17.97 -0.24,-1.15 -0.59,-2.29 -0.97,-3.4 -0.75,-2.22 -0.83,-7.27 -0.84,-9.55 -0.02,-4.06 0.15,-8.15 0.37,-12.26 0.07,-1.38 0.21,-2.81 0.3,-4.26 0.17,-2.83 0.43,-5.58 0.66,-8.44 0.22,-2.82 0.51,-5.73 0.81,-8.6 0.44,-4.25 0.88,-8.52 1.21,-12.8 0.77,-9.75 1.23,-19.51 1.65,-29.25 0.15,-3.46 0.16,-6.81 0.33,-10.3 0.1,-1.98 0.08,-4.11 0.12,-6.09 0.09,-4.09 0.03,-8.1 0.08,-12.15 0.05,-3.99 -0.11,-7.98 -0.24,-11.94 -0.1,-3.21 -0.32,-6.44 -0.65,-9.61l-1.73 -8.99c-0.15,-0.58 -0.35,-1.11 -0.49,-1.69 -0.08,-0.31 -0.16,-0.52 -0.25,-0.81 -1.58,-4.69 -2.36,-6.34 -4.29,-10.4 -0.14,-0.29 -0.25,-0.41 -0.39,-0.72l-2.6 -4.36c-0.21,-0.25 -0.32,-0.46 -0.48,-0.73 -0.76,-1.19 -1.59,-2.37 -2.49,-3.46 -2.75,-3.33 -4.42,-5.2 -7.67,-8.19 -1.32,-1.22 -2.78,-2.32 -4.22,-3.4l-3.01 -2.09c-1,-0.68 -2.11,-1.33 -3.23,-1.96 -4.82,-2.68 -10.24,-5.03 -15.67,-6.21 -0.83,-0.18 -1.35,-0.44 -2.2,-0.51 -0.75,-0.06 -1.63,-0.42 -2.38,-0.49 -0.67,-0.06 -1.48,-0.27 -2.22,-0.34 -2.08,-0.19 -4.25,-0.43 -6.35,-0.52 -1.44,-0.06 -2.64,-0.03 -4.03,-0.03 -5.55,0.01 -12.92,1.37 -18.19,3.13l-1.66 0.55c-3.25,1.08 -6.38,2.55 -9.41,4.12 -0.28,0.15 -0.52,0.29 -0.78,0.4l-1.47 0.84c-0.28,0.18 -0.47,0.23 -0.77,0.42l-3.55 2.25c-1.58,1 -4.63,3.48 -6.11,4.74 -3.29,2.8 -6.37,6.14 -8.92,9.67 -4.05,5.6 -7.32,11.61 -9.54,18.27l-1.34 4.21 -1.11 4.57c-0.09,0.42 -0.25,0.76 -0.31,1.03l-0.18 1.15c-0.18,0.8 -0.28,1.58 -0.44,2.35 -0.32,1.53 -0.53,3.02 -0.69,4.45 -0.09,0.8 -0.2,1.4 -0.27,2.18 -0.07,0.79 -0.17,1.48 -0.23,2.21 -0.11,1.43 -0.17,2.79 -0.29,4.2 -0.33,3.86 -0.19,12.09 0.08,16.05 0.14,1.93 0.22,3.88 0.43,5.81 0.03,0.28 0.07,0.63 0.09,0.92 0.07,1.43 0.62,5.78 0.89,7.46l0.69 4.67c0.28,2.21 0.83,5.01 1.28,7.21 0.13,0.63 0.22,1.15 0.34,1.79l0.74 3.54c0.12,0.59 0.29,1.21 0.4,1.82 0.18,1.06 1.33,5.67 1.65,6.97 0.15,0.61 0.29,1.15 0.43,1.73 0.07,0.28 0.14,0.56 0.21,0.84 0.08,0.32 0.17,0.53 0.26,0.87l1.4 5.19c0.36,1.13 0.59,2.29 0.93,3.42 0.95,3.16 2.53,10.81 3.08,14.15l1.48 9.15c0.37,2.37 0.79,4.96 1.04,7.36l2.02 14.88c0.31,2.22 1.06,5.5 0.56,7.73zm67.36 48.91c-3.33,10.7 -18.36,3.71 -15.14,-5.35 2.97,-8.37 18.54,-5.56 15.14,5.35zm-15.41 -32.14l0.32 17.86c-6.34,0.03 -22.87,0.67 -29.68,-0.78 -9.82,-2.09 -17.86,-3.18 -18.77,-14.7 -1.68,-21.25 9.53,-5.91 33.26,-3.37 3.81,0.41 11.82,0.08 14.86,0.98zm4.3 -0.27c7.08,-3.08 5.38,11.36 4.57,14.82 -0.57,2.45 -0.34,3.28 -2.89,3.01 0.22,-3.81 0.47,-5.64 0.22,-9.55 -0.24,-3.8 0.56,-5.59 -1.9,-8.28zm9.63 17.56l-0.25 -18.76c23.69,-1.41 38.81,-23.16 37.78,-2.26 -0.63,12.81 -2.01,13.6 -13.74,16.92 -1.27,0.36 -23.32,4.12 -23.79,4.09zm42.13 -175.85c-8.83,-42.3 -54.83,-60.6 -91.36,-39.34 -42.98,25.01 -34.77,83.78 -23.54,123.92 5.22,18.67 6.29,34.13 9.16,53.18 0.78,5.2 -1.2,7.08 -2.28,11.69 -1.24,5.31 -1.45,18.39 2.39,22.64 7.43,8.22 -2.09,9.66 10.94,16.2 4.65,2.34 19.88,2.97 26.18,3.93 15.73,1.75 8.73,7.56 20.68,8.51 10.67,0.53 10.76,-6.56 19,-9.46 10.98,-3.87 23.82,-2.9 25.24,-14.99 0.65,-5.5 2.18,-7.72 3.04,-12.32 1.54,-8.2 0.67,-15.32 -2.29,-22.93 -2.98,-7.66 0.52,-40.41 1.53,-49.94 2.1,-19.76 4.57,-75.48 1.31,-91.1z"/>
  <path class="fil1" d="M16.18 49.9c-6.63,25.41 -0.36,53.09 7.25,81.12 2.17,7.99 4.8,18.35 6.53,26.02 4.92,21.79 8.57,38.98 32.7,44.13 7.22,1.54 13.8,2.57 19.54,0.41 13.21,-4.96 17.2,-12.32 22.07,-25.4 1.36,-3.65 2.05,-28.16 4.52,-39.68 5.19,-24.19 13.13,-48.28 10.44,-70.9 -0.41,-3.48 -0.96,-7.15 -1.98,-10.54 -5.56,-18.62 -11.54,-32.94 -25.24,-40.44 -9.89,-5.41 -23.04,-8.96 -39.98,-4.04 -16.12,4.68 -31.62,23.05 -35.86,39.31zm34.28 -9.57c-8.93,2.85 -13.04,6.71 -15.34,16.14 -0.98,4.01 -0.7,3.6 -0.48,7.76 5.35,-8.91 5.59,-15.51 16.8,-17.65 1.73,-0.27 2.91,-1.89 2.64,-3.62 -0.27,-1.73 -1.89,-2.91 -3.62,-2.64zm31.55 -1.44c9.26,1.49 13.89,4.71 17.56,13.69 1.56,3.82 1.22,3.45 1.62,7.61 -6.61,-8.01 -7.83,-14.51 -19.23,-14.96 -1.75,-0.01 -3.16,-1.44 -3.14,-3.19 0.01,-1.75 1.44,-3.16 3.19,-3.14zm10.24 36.01c2.29,0.42 2.24,2.3 1.6,4.2 -1.09,-0.57 -1.85,-2.93 -1.6,-4.2zm5.63 23.97c-1.56,-2.18 -6.01,-5.4 -4.69,-6.53 11.47,-6.59 1.92,-28.68 -4.33,-19.13 -3.24,4.96 -2.51,9.72 -1.07,15.12 1.63,6.14 2.98,10.75 10.09,10.54zm-54.51 -22c2.53,-0 2.18,1.41 1.44,3.47 -1.36,-0.6 -1.82,-1.92 -1.44,-3.47zm1.57 18.5l-3.51 8.84c9.77,-0.81 9.24,-27.68 3.42,-29.87 -13.45,-5.07 -9.85,26.9 0.09,21.03zm21.52 100c2.19,-1.67 3.07,-1.96 4.74,-4.64l5 4.59c-2.17,1.84 -7.32,2.44 -9.74,0.05zm20.64 -21.43c2.41,-4.46 4.75,-8.91 3.61,-14.23 -1.03,-4.79 -4.99,-9.23 -10.34,-8.01 -4.05,0.92 -6.95,6.07 -8.83,9.33 -2.45,-4.49 -4.68,-8.51 -10.69,-8.69 -5.41,-0.16 -9.24,4.71 -9.38,9.88 -0.12,4.65 2.54,9.39 4.91,13.18 2.81,4.51 7.16,5.71 10.69,8.98 -7.74,13.32 -22.25,0 -23.23,-12.61 -0.72,-9.19 5.66,-32 9.23,-41.06 10.4,-26.41 5.72,-16.28 10.19,-41.82 1.33,-7.61 2.77,-15.2 3.79,-22.86 0.84,-6.28 1.32,-16.21 2.9,-21.91 0.92,17.3 5.82,44.8 10.44,61.01 3.26,11.43 6.77,23.52 9.98,36.27 1.59,6.3 4.27,12.03 5.83,18.19 2.09,8.26 3.18,12.93 -1.37,20.93 -3.02,5.29 -13.06,8.42 -16.57,3.09 1.6,-2.77 5.71,-3.84 8.85,-9.66zm-21.48 -156.6c3.62,-0.29 6.89,-0.14 9.9,0.36 0.79,5.19 1.03,9.1 2.58,14.32 2.94,-5.26 3.18,-7.81 3.45,-12.76 2.11,0.75 4.09,1.67 5.97,2.73 0.64,0.36 1.26,0.73 1.86,1.13 -0.65,3.66 -1.52,5.81 -0.22,9.11 1.78,-1.73 2.81,-4.11 3.87,-6.37 12.57,10.79 18.1,30.92 18.05,52.46 -0.01,5.29 -0.35,10.66 -0.92,15.99l-0.02 0.05 -0.03 0.06 -0.03 0.06 -0.03 0.06 -0.03 0.08 -0.03 0.06 -0.04 0.09 -0.03 0.06 -0.04 0.1 -0.03 0.06 -0.05 0.11 -0.02 0.05 -0.06 0.13 -0.02 0.05 -0.06 0.14 -0.02 0.04 -0.07 0.15 -0.02 0.04 -0.08 0.17 -0.01 0.03 -0.08 0.18 -0.01 0.02 -0.09 0.2 -0.01 0.02 -0.1 0.21 -0 0.01 -0.1 0.23 -0 0 -0.11 0.23 -0.11 0.24 -0.01 0.02 -0.1 0.22 -0.02 0.03 -0.03 0.07 -0.09 0.18 -0 0 -0.1 0.2 -0.01 0.02 -0.09 0.19 -0.02 0.05 -0.09 0.19 -0.04 0.08 -0.07 0.14 -0.07 0.14 -0.08 0.15 -0.05 0.1 -0.07 0.14 -0.08 0.16 -0.06 0.11 -0.08 0.15 -0.06 0.13 -0.08 0.15 -0.06 0.12 -0.09 0.16 -0.06 0.11 -0.08 0.15 -0.07 0.13 -0.08 0.15 -0.06 0.11 -0.08 0.15 -0.07 0.13 -0.07 0.13 -0.08 0.14 -0.08 0.14 -0.07 0.12 -0.09 0.17 -0.06 0.1 -0.1 0.17 -0.06 0.1 -0.1 0.17 -0.05 0.09 -0.12 0.19 -0.04 0.06c-0.1,0.17 -0.21,0.34 -0.31,0.5l-0 0 -0.01 0.01c-0.05,0.08 -0.1,0.16 -0.15,0.24l-0.02 0.02c-0.05,0.07 -0.1,0.15 -0.14,0.22l-0.02 0.04c-0.04,0.06 -0.09,0.13 -0.13,0.19l-0.06 0.08c-0.03,0.05 -0.07,0.1 -0.1,0.14l-0.05 0.08c-0.03,0.05 -0.07,0.1 -0.1,0.15l-0.05 0.07c-0.04,0.05 -0.07,0.1 -0.11,0.15l-0.06 0.08c-0.03,0.04 -0.06,0.08 -0.1,0.13 -0.02,0.03 -0.05,0.06 -0.07,0.09l-0.08 0.11 -0.07 0.09c-0.03,0.04 -0.06,0.07 -0.09,0.11l-0.06 0.07c-0.03,0.04 -0.06,0.07 -0.1,0.11l-0.06 0.07c-0.03,0.04 -0.06,0.07 -0.09,0.1l-0.07 0.07c-0.03,0.03 -0.06,0.06 -0.09,0.09l-0.07 0.07c-0.03,0.03 -0.06,0.06 -0.09,0.09l-0.07 0.06c-0.03,0.03 -0.06,0.05 -0.09,0.08l-0.07 0.06c-0.03,0.02 -0.05,0.05 -0.08,0.07 -0.02,0.02 -0.05,0.04 -0.07,0.06 -0.03,0.02 -0.05,0.04 -0.08,0.07 -0.02,0.02 -0.05,0.04 -0.07,0.05 -0.03,0.02 -0.06,0.04 -0.08,0.06 -0.02,0.01 -0.04,0.03 -0.06,0.04 -0.03,0.02 -0.06,0.04 -0.08,0.05 -0.02,0.01 -0.04,0.03 -0.07,0.04 -0.03,0.02 -0.05,0.03 -0.08,0.04 -0.02,0.01 -0.04,0.03 -0.07,0.04 -0.03,0.01 -0.05,0.03 -0.08,0.04 -0.02,0.01 -0.04,0.02 -0.06,0.03 -0.03,0.01 -0.06,0.02 -0.08,0.03 -0.02,0.01 -0.04,0.02 -0.06,0.02 -0.03,0.01 -0.06,0.02 -0.08,0.03 -0.02,0.01 -0.04,0.01 -0.06,0.02 -0.03,0.01 -0.06,0.01 -0.08,0.02 -0.02,0 -0.03,0.01 -0.05,0.01 -0.04,0.01 -0.09,0.01 -0.13,0.01 -1.85,0.07 -5.45,-0.67 -6.53,-0.57 0.36,0.59 0.64,1.03 1.27,1.38 0.13,0.07 0.27,0.14 0.4,0.21l0.06 0.03c0.12,0.06 0.25,0.12 0.37,0.18l0.07 0.03c0.12,0.06 0.24,0.11 0.36,0.16l0.06 0.03c0.12,0.05 0.25,0.1 0.37,0.15l0 0 0 0 0 0c0.12,0.05 0.25,0.09 0.37,0.14l0.05 0.02c0.12,0.04 0.23,0.08 0.34,0.11l0.08 0.02c0.11,0.03 0.22,0.07 0.33,0.09l0.06 0.02c0.11,0.03 0.22,0.05 0.32,0.08l0.04 0.01c0.11,0.02 0.22,0.04 0.32,0.06l0.06 0.01c0.1,0.02 0.21,0.03 0.31,0.05l0.08 0.01c0.1,0.01 0.2,0.02 0.3,0.03l0.07 0.01c0.1,0.01 0.19,0.01 0.29,0.02l0.05 0c0.09,0 0.19,0 0.28,0 0.03,-0 0.05,0 0.08,-0 0.09,-0 0.19,-0 0.28,-0.01l0.09 -0c0.09,-0.01 0.18,-0.01 0.27,-0.02 0.03,-0 0.05,-0.01 0.08,-0.01 0.08,-0.01 0.16,-0.02 0.24,-0.03l0.09 -0.01c0.08,-0.01 0.15,-0.03 0.23,-0.04 0.03,-0.01 0.06,-0.01 0.09,-0.02 0.08,-0.02 0.16,-0.03 0.24,-0.05l0.1 -0.02c0.08,-0.02 0.16,-0.04 0.24,-0.07 0.03,-0.01 0.06,-0.02 0.09,-0.03 0.06,-0.02 0.13,-0.04 0.19,-0.06 0.04,-0.01 0.08,-0.03 0.13,-0.04 0.06,-0.02 0.12,-0.04 0.18,-0.07 0.03,-0.01 0.07,-0.03 0.1,-0.04 0.07,-0.03 0.14,-0.06 0.21,-0.09 0.04,-0.02 0.07,-0.03 0.11,-0.05 0.07,-0.03 0.14,-0.06 0.21,-0.1 0.04,-0.02 0.07,-0.04 0.11,-0.05 0.05,-0.03 0.1,-0.05 0.15,-0.08 0.05,-0.03 0.1,-0.06 0.15,-0.08 0.05,-0.03 0.09,-0.05 0.14,-0.08 0.04,-0.02 0.08,-0.04 0.11,-0.07 0.06,-0.04 0.13,-0.08 0.19,-0.12 0.04,-0.02 0.08,-0.05 0.11,-0.07 0.05,-0.04 0.11,-0.07 0.16,-0.11 0.05,-0.03 0.09,-0.06 0.14,-0.1 0.03,-0.02 0.07,-0.05 0.1,-0.07 0.07,-0.05 0.13,-0.1 0.19,-0.15 0.03,-0.02 0.06,-0.05 0.09,-0.07 0.06,-0.05 0.13,-0.1 0.19,-0.15 0.03,-0.03 0.06,-0.05 0.1,-0.08 0.04,-0.04 0.09,-0.07 0.13,-0.11l0.08 -0.07c0.07,-0.06 0.14,-0.12 0.2,-0.18l0.06 -0.05c0.08,-0.07 0.16,-0.15 0.23,-0.22l0.03 -0.03c0.23,-0.23 0.46,-0.47 0.69,-0.73l0.02 -0.02c0.09,-0.1 0.18,-0.2 0.26,-0.3l0 -0c-0.42,2.53 -0.88,5.03 -1.37,7.49 -5.55,2.4 -0.44,1.61 -8.31,0.53 3.11,4.68 4.22,4.78 7.32,4.19 -2.82,12.71 -6.38,23.96 -9.27,31.67 -1.56,-1.33 -5.6,-23.6 -6.69,-27.72 -1.23,-4.64 -2.75,-8.77 -4.25,-13.29 -1.65,-4.96 -1.94,-8.9 -2.98,-13.89 -1.79,-8.55 -7.88,-51.26 -13.12,-54.91 -4.39,5.91 -12.33,50.02 -14.21,59.93 -3.33,17.54 -9.78,39.29 -14.07,57.69 -1.38,-4.91 -2.77,-9.8 -4.32,-14.71 -2.29,-4.11 -4.52,-9.24 -6.53,-15.05 3.44,-0.34 4.36,-1.65 5.56,-5.8 -4.33,1.61 -3.21,2.31 -6.64,1.35 -0.26,-0.08 0.07,0.07 -0.43,-0.2 -0.52,-1.71 -1.02,-3.46 -1.5,-5.25 4.16,1.43 8.3,0.14 11.84,-4.17 0.97,-1.19 0.83,-0.95 1.07,-2.04 -4.46,0.71 -8.35,7.01 -14.39,0.2 -5.85,-25.89 -6.43,-57.83 7.48,-77.05 1.54,1.43 5.03,4.97 5.63,3.95 0.44,-2.95 -0.92,-5.4 -2.46,-7.81 2.68,-2.91 5.79,-5.42 9.36,-7.45 2.02,4.03 1.45,4.8 5.33,7.22 0.22,-3.76 0.08,-5.65 -0.52,-9.39 -0.02,-0.04 -0.03,-0.09 -0.05,-0.13 2.6,-1.05 5.4,-1.88 8.43,-2.46 1.09,6.17 2.72,10.57 6.39,16.08 1.29,-7.29 -0.13,-8.99 -0.33,-15.95 0.06,-0.33 0.06,-0.65 0.01,-0.97zm-47.24 52.33c-0.56,11.04 -0.51,17.72 0.55,25.62 1.21,9.06 3.08,18 7.4,29.77 2.99,8.14 6.74,17.07 8.55,25.47 5.8,26.96 1,41.8 24.07,45.56 5.04,0.82 11.21,3.05 16,2.92 6.15,-0.17 6.77,-3.39 11.13,-6.17 4.42,-2.83 6.99,-1.75 10.45,-7.11 2.29,-3.55 4.61,-9.78 5.49,-13.9 2.58,-12.1 -4.41,-13.24 1.09,-30.47 2.93,-9.19 6.96,-21.93 8.6,-31.25 0.66,-3.72 2.09,-9.45 3.02,-15.37 1.12,-7.11 1.68,-14.46 1.61,-18.57 -0.28,-16.28 -5.77,-38.3 -18.09,-49.82 -14.92,-13.96 -36.05,-16.42 -53.63,-6.39 -14.72,8.41 -25.41,33.34 -26.24,49.69z"/>
 </g>
</svg>
